<mxfile host="65bd71144e">
    <diagram id="A7ZdrdynGTlpiCqagn6K" name="Страница 1">
        <mxGraphModel dx="816" dy="479" grid="1" gridSize="10" guides="1" tooltips="1" connect="1" arrows="1" fold="1" page="1" pageScale="1" pageWidth="827" pageHeight="1169" math="0" shadow="0">
            <root>
                <mxCell id="0"/>
                <mxCell id="1" parent="0"/>
                <mxCell id="11" style="edgeStyle=none;html=1;exitX=0.5;exitY=1;exitDx=0;exitDy=0;entryX=0.5;entryY=0;entryDx=0;entryDy=0;fontSize=17;fontColor=#000000;" parent="1" source="2" target="3" edge="1">
                    <mxGeometry relative="1" as="geometry"/>
                </mxCell>
                <mxCell id="2" value="&lt;font style=&quot;font-size: 18px;&quot; color=&quot;#000000&quot;&gt;&lt;b&gt;Start&lt;/b&gt;&lt;/font&gt;" style="rounded=1;whiteSpace=wrap;html=1;fillColor=#fad9d5;strokeColor=#ae4132;strokeWidth=4;" parent="1" vertex="1">
                    <mxGeometry x="340" y="120" width="120" height="60" as="geometry"/>
                </mxCell>
                <mxCell id="14" style="edgeStyle=none;html=1;exitX=0.5;exitY=1;exitDx=0;exitDy=0;entryX=0.5;entryY=0;entryDx=0;entryDy=0;fontSize=17;fontColor=#000000;" parent="1" source="3" target="4" edge="1">
                    <mxGeometry relative="1" as="geometry"/>
                </mxCell>
                <mxCell id="3" value="&lt;font color=&quot;#000000&quot;&gt;&lt;b&gt;ObjectsArray = [size]&lt;/b&gt;&lt;/font&gt;" style="shape=parallelogram;perimeter=parallelogramPerimeter;whiteSpace=wrap;html=1;fixedSize=1;strokeWidth=4;fontSize=18;fillColor=#b1ddf0;strokeColor=#10739e;" parent="1" vertex="1">
                    <mxGeometry x="280" y="220" width="240" height="60" as="geometry"/>
                </mxCell>
                <mxCell id="15" style="edgeStyle=none;html=1;entryX=0.5;entryY=0;entryDx=0;entryDy=0;fontSize=17;fontColor=#000000;" parent="1" source="4" target="5" edge="1">
                    <mxGeometry relative="1" as="geometry"/>
                </mxCell>
                <mxCell id="4" value="&lt;b&gt;&lt;font color=&quot;#000000&quot;&gt;index = 0&amp;nbsp;&lt;br&gt;counter = 0&lt;br&gt;&lt;/font&gt;&lt;/b&gt;" style="rounded=0;whiteSpace=wrap;html=1;strokeWidth=4;fontSize=18;fillColor=#d0cee2;strokeColor=#56517e;" parent="1" vertex="1">
                    <mxGeometry x="340" y="320" width="120" height="60" as="geometry"/>
                </mxCell>
                <mxCell id="5" value="&lt;b&gt;&lt;font color=&quot;#000000&quot;&gt;index &amp;lt; size&lt;/font&gt;&lt;/b&gt;" style="rhombus;whiteSpace=wrap;html=1;strokeWidth=4;fontSize=18;fillColor=#fad7ac;strokeColor=#b46504;" parent="1" vertex="1">
                    <mxGeometry x="315" y="420" width="170" height="100" as="geometry"/>
                </mxCell>
                <mxCell id="42" style="edgeStyle=none;html=1;exitX=1;exitY=0.5;exitDx=0;exitDy=0;fontSize=17;fontColor=#000000;" parent="1" source="6" edge="1">
                    <mxGeometry relative="1" as="geometry">
                        <mxPoint x="590" y="643" as="targetPoint"/>
                    </mxGeometry>
                </mxCell>
                <mxCell id="45" value="Yes" style="edgeLabel;html=1;align=center;verticalAlign=middle;resizable=0;points=[];fontSize=17;fontColor=#000000;labelBackgroundColor=#E6E6E6;" parent="42" vertex="1" connectable="0">
                    <mxGeometry x="0.5092" y="2" relative="1" as="geometry">
                        <mxPoint x="-15" y="2" as="offset"/>
                    </mxGeometry>
                </mxCell>
                <mxCell id="6" value="&lt;font color=&quot;#000000&quot; style=&quot;font-size: 15px;&quot;&gt;&lt;b&gt;LengthObjectsArray [index] &amp;lt;= 3&lt;/b&gt;&lt;/font&gt;" style="rhombus;whiteSpace=wrap;html=1;strokeWidth=4;fontSize=18;fillColor=#fad7ac;strokeColor=#b46504;" parent="1" vertex="1">
                    <mxGeometry x="268.75" y="585" width="262.5" height="115" as="geometry"/>
                </mxCell>
                <mxCell id="8" value="&lt;b&gt;&lt;font style=&quot;font-size: 17px;&quot; color=&quot;#000000&quot;&gt;index = &lt;br&gt;index + 1&lt;/font&gt;&lt;/b&gt;" style="rounded=0;whiteSpace=wrap;html=1;strokeWidth=4;fontSize=15;fillColor=#d0cee2;strokeColor=#56517e;" parent="1" vertex="1">
                    <mxGeometry x="60" y="520" width="140" height="60" as="geometry"/>
                </mxCell>
                <mxCell id="22" value="" style="endArrow=classic;html=1;fontSize=17;fontColor=#000000;exitX=0.5;exitY=1;exitDx=0;exitDy=0;" parent="1" source="5" edge="1">
                    <mxGeometry relative="1" as="geometry">
                        <mxPoint x="400" y="540" as="sourcePoint"/>
                        <mxPoint x="400" y="580" as="targetPoint"/>
                        <Array as="points">
                            <mxPoint x="400" y="560"/>
                            <mxPoint x="400" y="570"/>
                        </Array>
                    </mxGeometry>
                </mxCell>
                <mxCell id="23" value="Yes" style="edgeLabel;resizable=0;html=1;align=center;verticalAlign=middle;strokeWidth=4;fontSize=17;fontColor=#000000;labelBackgroundColor=#E6E6E6;" parent="22" connectable="0" vertex="1">
                    <mxGeometry relative="1" as="geometry">
                        <mxPoint as="offset"/>
                    </mxGeometry>
                </mxCell>
                <mxCell id="26" value="" style="edgeStyle=segmentEdgeStyle;endArrow=classic;html=1;curved=0;rounded=0;endSize=8;startSize=8;fontSize=17;fontColor=#009900;exitX=0;exitY=0.5;exitDx=0;exitDy=0;" parent="1" source="6" target="8" edge="1">
                    <mxGeometry width="50" height="50" relative="1" as="geometry">
                        <mxPoint x="260" y="640" as="sourcePoint"/>
                        <mxPoint x="120" y="617.5" as="targetPoint"/>
                        <Array as="points">
                            <mxPoint x="120" y="643"/>
                        </Array>
                    </mxGeometry>
                </mxCell>
                <mxCell id="31" value="No" style="edgeLabel;html=1;align=center;verticalAlign=middle;resizable=0;points=[];fontSize=17;fontColor=#000000;labelBackgroundColor=#E6E6E6;" parent="26" vertex="1" connectable="0">
                    <mxGeometry x="-0.156" relative="1" as="geometry">
                        <mxPoint as="offset"/>
                    </mxGeometry>
                </mxCell>
                <mxCell id="28" value="" style="edgeStyle=segmentEdgeStyle;endArrow=classic;html=1;curved=0;rounded=0;endSize=8;startSize=8;fontSize=17;fontColor=#009900;" parent="1" edge="1">
                    <mxGeometry width="50" height="50" relative="1" as="geometry">
                        <mxPoint x="120" y="470" as="sourcePoint"/>
                        <mxPoint x="315" y="469.5" as="targetPoint"/>
                    </mxGeometry>
                </mxCell>
                <mxCell id="30" value="" style="endArrow=none;html=1;fontSize=17;fontColor=#009900;" parent="1" edge="1">
                    <mxGeometry width="50" height="50" relative="1" as="geometry">
                        <mxPoint x="120" y="500" as="sourcePoint"/>
                        <mxPoint x="120" y="470" as="targetPoint"/>
                        <Array as="points">
                            <mxPoint x="120" y="500"/>
                            <mxPoint x="120" y="520"/>
                        </Array>
                    </mxGeometry>
                </mxCell>
                <mxCell id="34" value="&lt;font color=&quot;#000000&quot;&gt;&lt;b&gt;Print &lt;br&gt;ObjectsArray [index]&lt;/b&gt;&lt;/font&gt;" style="shape=parallelogram;perimeter=parallelogramPerimeter;whiteSpace=wrap;html=1;fixedSize=1;labelBackgroundColor=none;strokeWidth=4;fontSize=17;fillColor=#b0e3e6;strokeColor=#0e8088;verticalAlign=middle;" parent="1" vertex="1">
                    <mxGeometry x="580" y="435" width="200" height="70" as="geometry"/>
                </mxCell>
                <mxCell id="36" value="" style="endArrow=classic;html=1;fontSize=17;fontColor=#000000;entryX=0;entryY=0.5;entryDx=0;entryDy=0;" parent="1" target="34" edge="1">
                    <mxGeometry width="50" height="50" relative="1" as="geometry">
                        <mxPoint x="490" y="470" as="sourcePoint"/>
                        <mxPoint x="560" y="450" as="targetPoint"/>
                        <Array as="points">
                            <mxPoint x="540" y="470"/>
                        </Array>
                    </mxGeometry>
                </mxCell>
                <mxCell id="37" value="No" style="edgeLabel;html=1;align=center;verticalAlign=middle;resizable=0;points=[];fontSize=17;fontColor=#000000;labelBackgroundColor=#E6E6E6;" parent="36" vertex="1" connectable="0">
                    <mxGeometry x="-0.248" y="2" relative="1" as="geometry">
                        <mxPoint x="3" y="2" as="offset"/>
                    </mxGeometry>
                </mxCell>
                <mxCell id="39" value="&lt;font color=&quot;#000000&quot;&gt;&lt;b&gt;Stop&lt;/b&gt;&lt;/font&gt;" style="rounded=1;whiteSpace=wrap;html=1;labelBackgroundColor=#E6E6E6;strokeWidth=4;fontSize=17;fillColor=#fad9d5;strokeColor=#ae4132;" parent="1" vertex="1">
                    <mxGeometry x="620" y="320" width="120" height="60" as="geometry"/>
                </mxCell>
                <mxCell id="40" value="" style="endArrow=classic;html=1;fontSize=17;fontColor=#000000;entryX=0.5;entryY=1;entryDx=0;entryDy=0;" parent="1" target="39" edge="1">
                    <mxGeometry width="50" height="50" relative="1" as="geometry">
                        <mxPoint x="680" y="440" as="sourcePoint"/>
                        <mxPoint x="730" y="390" as="targetPoint"/>
                    </mxGeometry>
                </mxCell>
                <mxCell id="47" value="" style="endArrow=classic;html=1;fontSize=17;fontColor=#000000;entryX=1;entryY=1;entryDx=0;entryDy=0;exitX=0.098;exitY=-0.028;exitDx=0;exitDy=0;exitPerimeter=0;" parent="1" target="5" edge="1">
                    <mxGeometry width="50" height="50" relative="1" as="geometry">
                        <mxPoint x="599.5999999999999" y="604.22" as="sourcePoint"/>
                        <mxPoint x="540" y="530" as="targetPoint"/>
                    </mxGeometry>
                </mxCell>
                <mxCell id="48" value="&lt;b&gt;&lt;font style=&quot;font-size: 17px;&quot; color=&quot;#000000&quot;&gt;counter = &lt;br&gt;counter + 1&lt;/font&gt;&lt;/b&gt;" style="rounded=0;whiteSpace=wrap;html=1;strokeWidth=4;fontSize=15;fillColor=#d0cee2;strokeColor=#56517e;" vertex="1" parent="1">
                    <mxGeometry x="600" y="600" width="140" height="60" as="geometry"/>
                </mxCell>
            </root>
        </mxGraphModel>
    </diagram>
</mxfile>